<svg xmlns="http://www.w3.org/2000/svg" viewBox="0 0 128 128">
  <defs>
    <linearGradient id="sky" x1="0" y1="0" x2="0" y2="1"><stop offset="0" stop-color="#2d8cff"/><stop offset=".6" stop-color="#4fc3f7"/><stop offset="1" stop-color="#9be7ff"/></linearGradient>
    <linearGradient id="sea" x1="0" y1="0" x2="0" y2="1"><stop offset="0" stop-color="#0a5fa8"/><stop offset="1" stop-color="#063a6b"/></linearGradient>
    <radialGradient id="sun" cx=".5" cy=".5" r=".5"><stop offset="0" stop-color="#fff6c2"/><stop offset=".6" stop-color="#ffd54a"/><stop offset="1" stop-color="#ffb300"/></radialGradient>
    <clipPath id="r"><rect width="128" height="128" rx="30"/></clipPath>
  </defs>
  <g clip-path="url(#r)">
    <rect width="128" height="128" fill="url(#sky)"/>
    <circle cx="88" cy="42" r="17" fill="url(#sun)"/>
    <path d="M14 86c14-14 30-20 50-20s34 6 50 20v42H14z" fill="#3fbf6a"/>
    <path d="M24 86c10-8 24-12 40-12s30 4 40 12" fill="none" stroke="#2e9a52" stroke-width="3"/>
    <path d="M52 80c-2-14 0-28 6-38" fill="none" stroke="#7a4a24" stroke-width="5" stroke-linecap="round"/>
    <path d="M58 42c-10-6-22-4-28 4 10-2 18 0 24 4zM58 42c8-9 20-10 28-4-10 0-18 3-24 8zM58 42c-2-10-10-16-20-16 7 4 12 10 14 18zM58 42c6-7 16-9 24-6-8 1-15 5-19 10z" fill="#1f8a4c"/>
    <rect y="92" width="128" height="36" fill="url(#sea)"/>
    <path d="M0 98c10 0 10 5 21 5s11-5 21-5 11 5 21 5 11-5 21-5 11 5 22 5 11-5 22-5" fill="none" stroke="#9be7ff" stroke-width="3" opacity=".9"/>
    <path d="M0 112c10 0 10 5 21 5s11-5 21-5 11 5 21 5 11-5 21-5 11 5 22 5 11-5 22-5" fill="none" stroke="#5fb8f0" stroke-width="3" opacity=".7"/>
  </g>
  <rect x="2" y="2" width="124" height="124" rx="28" fill="none" stroke="#fff" stroke-opacity=".35" stroke-width="3"/>
</svg>
