<svg xmlns="http://www.w3.org/2000/svg" viewBox="0 0 128 128">
  <defs>
    <linearGradient id="g" x1="0" y1="0" x2="1" y2="1"><stop offset="0" stop-color="#34e0a1"/><stop offset=".55" stop-color="#16b3d6"/><stop offset="1" stop-color="#1a6dff"/></linearGradient>
    <linearGradient id="s" x1="0" y1="0" x2="0" y2="1"><stop offset="0" stop-color="#fff" stop-opacity=".35"/><stop offset="1" stop-color="#fff" stop-opacity="0"/></linearGradient>
  </defs>
  <rect width="128" height="128" rx="30" fill="url(#g)"/>
  <path d="M0 30a30 30 0 0 1 30-30h68a30 30 0 0 1 30 30v20C88 64 40 64 0 50z" fill="url(#s)"/>
  <path d="M30 94V56c0-8 6-14 14-14 6 0 10 3 13 8 3-5 8-8 14-8 8 0 14 6 14 14v38" fill="none" stroke="#04203f" stroke-width="13" stroke-linecap="round" stroke-linejoin="round"/>
  <path d="M57 58v36" stroke="#04203f" stroke-width="13" stroke-linecap="round"/>
  <circle cx="100" cy="94" r="8" fill="#fff"/>
</svg>
